# xmcd
#
# Track frame offsets: 
#        150
#        18091
#        45398
#        67497
#        93680
#        110804
#        129932
#        151781
#        174504
#        190249
#
# Disc length: 2829 seconds
#
# Revision: 0
# Processed by: cddbd v1.5.2PL0 Copyright (c) Steve Scherf et al.
# Submitted via: ExactAudioCopy v1.0b3
#
DISCID=820b0b0a
DTITLE=Various Artist - Chuyen Ba Mua Mua
DYEAR=1992
DGENRE=
TTITLE0=Son Tuyen - Chuyen 3 mua mua
TTITLE1=Luu Hong - Mua dem ngoai o
TTITLE2=Phuong Mai - Chuyen tinh Nguu lang Chuc nu
TTITLE3=Phuong Vu - Huyen thoai mot chieu mua
TTITLE4=Luu Hong - Ai di ngoai suong gio
TTITLE5=Thanh Tuyen - Chuyen 2 mua mua
TTITLE6=Huong Lan - Chuyen dem mua
TTITLE7=Phuong Vu - Mua chieu ky niem
TTITLE8=Luu Hong - Tinh mua gio (Tinh gio mua)
TTITLE9=Tuan Anh - Lanh tron dem mua
EXTD=
EXTT0=
EXTT1=
EXTT2=
EXTT3=
EXTT4=
EXTT5=
EXTT6=
EXTT7=
EXTT8=
EXTT9=
PLAYORDER=
